<svg width="392" height="366" viewBox="0 0 392 366" fill="none" xmlns="http://www.w3.org/2000/svg">
<path d="M195.812 365.725C138.305 365.725 91.6861 359.112 91.6861 350.954C91.6861 342.796 138.305 336.182 195.812 336.182C253.319 336.182 299.938 342.796 299.938 350.954C299.938 359.112 253.319 365.725 195.812 365.725Z" fill="#EBEBEB"/>
<path d="M318.712 224.593C331.62 242.036 345.088 262.362 348.365 284.266C348.365 284.597 347.869 284.707 347.796 284.377C346.306 278.399 344.398 272.533 342.086 266.823C333.594 264.491 325.267 262.573 320.814 254.145C316.224 245.488 316.839 234.196 317.702 224.767C317.766 224.244 318.455 224.216 318.712 224.593Z" fill="#FFC727"/>
<path d="M341.957 266.64C336.155 253.631 328.71 240.558 319.254 229.863C319.19 229.789 319.089 229.863 319.144 229.964C325.341 237.583 330.05 245.883 334.65 254.329C330.372 249.995 325.69 246.066 321.641 241.476C321.558 241.384 321.439 241.476 321.512 241.604C325.533 246.433 329.922 251.703 335.155 255.247C336.568 257.836 337.988 260.431 339.414 263.032C339.066 262.839 338.698 262.665 338.34 262.481C338.276 262.481 338.221 262.545 338.285 262.582C338.68 262.784 339.075 262.995 339.488 263.17C340.167 264.4 340.847 265.63 341.544 266.842C341.7 267.154 342.077 266.915 341.957 266.64Z" fill="#263238"/>
<path d="M337.642 262.104C334.173 260.16 330.86 257.947 327.736 255.485C327.644 255.421 327.525 255.54 327.608 255.605C330.637 258.223 333.958 260.484 337.504 262.343C337.536 262.361 337.574 262.366 337.609 262.357C337.644 262.347 337.674 262.324 337.692 262.293C337.711 262.261 337.716 262.223 337.706 262.188C337.697 262.153 337.674 262.123 337.642 262.104Z" fill="#263238"/>
<path d="M349.852 280.989C349.852 281.255 349.375 281.255 349.384 280.989C349.32 273.764 349.384 266.511 349.264 259.259C347.428 255.531 343.444 253.466 340.69 250.473C338.7 248.291 336.972 245.885 335.54 243.303C332.215 237.137 330.181 230.359 329.563 223.381C328.801 215.66 331.73 190.175 334.989 191.065C336.678 191.525 342.14 204.148 343.591 208.316C345.935 215.201 347.656 222.283 348.732 229.477C351.367 246.443 351.146 263.895 349.852 280.989Z" fill="#FFC727"/>
<path d="M349.907 249.849C349.512 240.668 347.456 231.487 345.528 222.619C343.453 213.08 341.029 204.093 336.118 195.573C336.026 195.417 335.787 195.573 335.87 195.72C339.148 202.339 341.685 209.301 343.435 216.477C343.104 215.963 342.709 215.477 342.36 214.99C342.232 214.797 341.911 214.99 342.048 215.174C342.484 215.946 342.998 216.672 343.581 217.34C343.602 217.347 343.625 217.347 343.646 217.34C345.335 224.171 346.547 231.111 347.593 238.107C347.511 238.015 347.437 237.923 347.355 237.84C347.272 237.758 347.217 237.84 347.254 237.923C347.382 238.156 347.52 238.385 347.667 238.612C348.19 242.146 348.677 245.671 349.163 249.169C342.875 243.789 337.495 237.446 334.474 229.642C334.474 229.642 334.401 229.642 334.419 229.642C337.385 237.739 342.067 244.937 349.273 249.839C349.402 250.757 349.53 251.675 349.668 252.658C349.668 252.851 350.008 252.805 350.008 252.612C350.008 251.776 350.008 250.95 349.925 250.115C349.971 250.069 350.045 249.931 349.907 249.849Z" fill="#263238"/>
<path d="M346.942 236.61C342.131 229.431 337.642 222.463 334.089 214.577C334.089 214.494 333.896 214.577 333.933 214.641C336.898 222.527 341.048 230.514 346.666 236.84C346.813 236.922 347.043 236.757 346.942 236.61Z" fill="#263238"/>
<path d="M340.552 212.759C338.56 209.234 336.458 205.809 334.585 202.211C334.585 202.11 334.392 202.211 334.438 202.302C335.974 206.054 337.923 209.622 340.249 212.943C340.378 213.117 340.671 212.961 340.552 212.759Z" fill="#263238"/>
<path d="M341.333 214.292V214.358C341.333 214.358 341.37 214.292 341.333 214.292Z" fill="#263238"/>
<path d="M354.746 260.112C354.84 264.896 355.402 269.659 356.426 274.333C356.352 274.847 356.279 275.361 356.205 275.894C354.734 270.728 353.88 265.406 353.662 260.039C353.619 259.963 353.596 259.878 353.596 259.791C353.596 259.704 353.619 259.618 353.662 259.543C353.452 252.347 353.984 245.148 355.251 238.061C357.491 224.786 362.375 212.052 371.629 202.11C371.705 202.045 371.795 201.998 371.893 201.974C371.99 201.949 372.091 201.947 372.19 201.967C372.288 201.987 372.38 202.03 372.459 202.091C372.539 202.152 372.603 202.231 372.648 202.321C376.384 211.813 375.081 223.142 371.904 232.617C370.173 237.745 367.698 242.592 364.56 247.003C361.365 251.464 357.325 255.237 354.746 260.112Z" fill="#FFC727"/>
<path d="M370.518 206.544C361.742 220.774 355.646 237.657 354.911 254.466C354.911 254.76 355.398 254.843 355.444 254.54C355.655 253.025 355.885 251.528 356.123 250.041C359.75 246.571 363.468 242.899 366.075 238.556C366.081 238.54 366.081 238.521 366.075 238.505C366.07 238.488 366.059 238.473 366.045 238.463C366.03 238.453 366.013 238.447 365.995 238.448C365.978 238.448 365.96 238.454 365.946 238.465C362.788 242.072 359.841 245.763 356.279 248.985C356.913 245.267 357.656 241.641 358.538 237.969L359.226 237.152C359.382 236.968 359.125 236.711 358.969 236.886L358.758 237.124C359.997 232.184 361.53 227.322 363.348 222.564C365.588 219.902 368.085 217.597 369.71 214.393C369.714 214.378 369.713 214.362 369.707 214.348C369.701 214.333 369.691 214.321 369.678 214.313C369.664 214.304 369.649 214.301 369.633 214.302C369.618 214.303 369.603 214.309 369.591 214.32C368.287 216.156 367.021 217.992 365.533 219.709C364.946 220.388 364.294 221.022 363.697 221.683C365.721 216.526 368.121 211.524 370.876 206.718C370.899 206.671 370.903 206.616 370.886 206.566C370.868 206.516 370.832 206.475 370.785 206.452C370.737 206.429 370.682 206.426 370.632 206.443C370.583 206.46 370.541 206.496 370.518 206.544Z" fill="#263238"/>
<path d="M368.736 224.097C365.909 227.916 362.677 231.561 360.042 235.499C359.969 235.609 360.125 235.729 360.226 235.637C363.614 232.46 366.478 228.127 368.929 224.216C369.012 224.088 368.819 223.987 368.736 224.097Z" fill="#263238"/>
<path d="M359.649 236.381L359.52 236.5C359.509 236.519 359.505 236.541 359.508 236.563C359.511 236.585 359.521 236.606 359.537 236.621C359.552 236.637 359.573 236.647 359.594 236.65C359.616 236.653 359.639 236.649 359.658 236.638L359.777 236.527C359.797 236.51 359.809 236.486 359.81 236.461C359.812 236.435 359.803 236.409 359.786 236.39C359.769 236.37 359.745 236.358 359.719 236.357C359.694 236.355 359.668 236.364 359.649 236.381Z" fill="#263238"/>
<path d="M384.251 233.902C383.553 241.246 379.661 249.977 374.997 255.623C372.925 258.071 370.368 260.062 367.487 261.471C364.238 263.087 360.832 264.932 357.472 266.254C355.876 270.326 354.686 274.545 353.919 278.85C353.818 278.483 353.708 278.106 353.597 277.739C355.764 259.194 367.763 243.349 383.094 233.177C383.214 233.094 383.355 233.049 383.5 233.046C383.645 233.042 383.788 233.082 383.911 233.159C384.034 233.236 384.132 233.348 384.192 233.48C384.253 233.612 384.273 233.758 384.251 233.902Z" fill="#FFC727"/>
<path d="M378.953 239.383C379.064 239.291 378.953 239.098 378.797 239.181C370.358 245.448 363.628 253.734 359.225 263.28C359.114 263.537 359.463 263.757 359.601 263.5C360.317 262.251 361.042 261.04 361.786 259.828C365.284 259.167 368.607 256.697 371.205 254.365C371.279 254.301 371.205 254.191 371.104 254.255C369.765 255.478 368.275 256.524 366.67 257.367C365.238 258.093 363.705 258.552 362.217 259.13C363.521 257.074 364.871 255.1 366.284 253.181C370.065 251.74 373.611 249.744 376.805 247.26C376.906 247.186 376.805 247.03 376.713 247.094C373.545 249.009 370.279 250.756 366.927 252.327C369.064 249.504 371.369 246.812 373.831 244.267C375.024 243.642 376.236 243.009 377.384 242.339C377.475 242.284 377.384 242.119 377.31 242.155C376.343 242.493 375.419 242.943 374.556 243.496C375.997 242.119 377.42 240.732 378.953 239.383Z" fill="#263238"/>
<path d="M378.624 245.782C378.417 245.907 378.221 246.048 378.036 246.204C377.981 246.259 378.036 246.332 378.11 246.305C378.322 246.203 378.528 246.086 378.725 245.956C378.746 245.942 378.761 245.92 378.767 245.895C378.773 245.87 378.769 245.844 378.756 245.821C378.743 245.799 378.722 245.783 378.698 245.775C378.673 245.768 378.647 245.77 378.624 245.782Z" fill="#263238"/>
<path d="M329.655 319.006H371.711L368.314 280.704L367.571 272.258H333.795L333.052 280.704L329.655 319.006Z" fill="#455A64"/>
<path d="M333.052 280.704H368.314L367.571 272.258H333.796L333.052 280.704Z" fill="#263238"/>
<path d="M331.786 266.355H369.582V274.709H331.786V266.355Z" fill="#455A64"/>
<path d="M391.623 319.015L342.672 318.794L293.722 318.712L195.811 318.556L97.91 318.712L48.9502 318.794L-0.000457764 319.015L48.9502 319.244L97.91 319.327L195.811 319.474L293.722 319.318L342.672 319.244L391.623 319.015Z" fill="#263238"/>
<path d="M148.918 239.135L157.079 238.281C157.176 236.091 157.59 233.926 158.309 231.855C161.165 223.822 167.398 217.166 172.172 210.565C172.172 210.565 172.227 210.565 172.172 210.611C167.412 217.402 163.802 224.929 161.486 232.892C161.061 234.505 160.826 236.163 160.788 237.831L165.874 237.308C165.847 232.426 166.983 227.608 169.188 223.252C169.253 223.124 169.464 223.252 169.409 223.418C167.573 227.824 167.343 232.451 167.71 237.188L211.841 232.534C212.336 228.484 212.499 224.4 212.328 220.324C212.32 220.276 212.322 220.228 212.335 220.182C212.348 220.135 212.37 220.092 212.401 220.056C212.432 220.019 212.471 219.989 212.515 219.969C212.558 219.949 212.606 219.938 212.654 219.938C212.702 219.938 212.749 219.949 212.793 219.969C212.836 219.989 212.875 220.019 212.906 220.056C212.937 220.092 212.96 220.135 212.972 220.182C212.985 220.228 212.988 220.276 212.98 220.324C213.214 224.348 213.214 228.382 212.98 232.405L216.652 232.001C216.851 225.016 216.154 218.034 214.577 211.226C214.566 211.203 214.56 211.178 214.559 211.152C214.559 211.127 214.564 211.101 214.575 211.078C214.585 211.054 214.601 211.034 214.62 211.017C214.64 211 214.662 210.988 214.687 210.981C214.712 210.974 214.738 210.973 214.763 210.977C214.788 210.982 214.812 210.991 214.833 211.006C214.854 211.021 214.872 211.04 214.885 211.062C214.897 211.084 214.905 211.109 214.907 211.134C216.869 217.871 218.1 224.799 218.58 231.799L249.133 228.595C247.041 224.299 245.306 219.837 243.946 215.256C243.817 214.88 244.377 214.724 244.506 215.109C246.139 219.769 248.295 224.228 250.932 228.403L255.467 227.935C251.464 220.443 248.334 212.548 247.205 204.175C247.205 203.836 247.691 203.771 247.755 204.111C249.472 213.108 254.411 220.324 259.323 227.521L270.826 226.319C266.364 219.589 259.002 213.677 257.487 205.488C255.816 196.308 264.023 191.332 266.08 183.372C269.532 170.042 262.297 160.788 253.429 152.379C245.277 144.612 245.47 135.11 242.936 124.708C241.1 117.052 238.345 108.615 233.81 102.133C219.911 82.1199 197.611 86.5266 197.611 86.7836C192.402 87.2043 187.411 89.0566 183.189 92.1359C183.168 92.1308 183.146 92.1308 183.124 92.1359C182.831 92.34 182.552 92.5639 182.289 92.8061C177.5 96.7544 173.77 101.834 171.438 107.587V107.66C170.631 109.512 169.926 111.406 169.326 113.334C168.243 116.832 168.27 121.596 167.49 127.105C167.509 127.211 167.509 127.32 167.49 127.426C166.3 137.375 161.391 146.506 153.747 152.985C142.087 163.285 146.356 178.396 157.199 193.122C161.789 199.365 162.174 203.56 160.733 207.269C160.733 207.269 160.733 207.269 160.733 207.324C160.513 207.829 160.311 208.242 160.063 208.747C157.906 212.86 153.774 216.597 151.121 222.197C148.633 227.347 148.339 233.268 148.918 239.135Z" fill="#263238"/>
<path d="M217.194 88.482C226.738 92.8413 234.163 100.808 237.841 110.635C240.861 118.484 241.642 127.16 245.47 134.706C249.087 141.821 255.009 147.008 259.874 153.067C266.301 161.063 270.689 171.07 266.301 180.903C263.547 186.998 257.12 193.278 257.946 200.788C258.865 209.555 266.98 217.597 271.497 224.657C271.717 224.997 271.231 225.41 270.983 225.079C264.942 217.193 254.568 206.957 257.212 195.986C258.442 190.964 261.509 187.008 263.868 182.647C268.458 174.182 266.897 165.498 261.444 157.41C254.054 146.457 244.736 139.682 240.962 126.196C238.814 118.484 237.621 110.506 233.278 103.667C229.313 97.359 223.654 92.2943 216.946 89.0512C216.726 88.8768 216.928 88.3535 217.194 88.482Z" fill="#263238"/>
<path d="M154.581 219.837C157.684 215.008 161.632 211.355 159.456 204.451C157.941 199.668 154.343 195.702 151.8 191.525C145.438 181.105 141.426 167.756 146.539 156.336C149.422 149.909 154.802 148.073 159.199 143.198C164.515 137.313 166.14 128.665 167.544 120.697C169.647 108.762 172.382 95.1105 184.482 91.677C184.583 91.677 184.629 91.8239 184.482 91.8606C169.133 97.2496 170.234 117.153 166.461 131.208C165.176 135.982 163.239 140.618 160.035 144.153C154.967 149.753 148.568 151.911 146.264 160.265C144.07 168.096 145.621 176.542 148.889 184.061C151.717 190.579 156.619 195.876 159.328 202.422C160.953 206.314 161.504 210.409 159.713 214.145C158.309 217.074 155.766 219.13 154.205 221.976C152.231 225.882 151.428 230.275 151.892 234.627C151.892 235.077 151.295 235.05 151.249 234.627C150.628 229.461 151.805 224.238 154.581 219.837Z" fill="#263238"/>
<path d="M192.983 209.069C170.72 248.444 113.112 303.922 96.0273 295.072C75.0773 284.211 71.1022 230.12 72.672 217.891C73.5901 210.547 131.014 211.924 129.591 219.727C128.738 224.317 126.984 229.165 128.067 228.568C131.455 226.732 140.131 218.469 172.015 194.71C189.742 181.444 207.745 183.005 192.983 209.069Z" fill="#F7A9A0"/>
<path d="M124.204 261.884C126.242 256.605 130.795 241.806 127.692 228.026C127.692 227.87 127.481 227.889 127.49 228.026C128.721 239.52 125.654 256.44 124.029 261.774C124.011 261.93 124.204 262.022 124.204 261.884Z" fill="#263238"/>
<path d="M79.8804 180.526C74.372 190.974 71.4618 216.734 73.151 223.216C74.8403 229.697 118.475 236.068 123.433 231.34C128.39 226.612 144.208 189.973 141.932 178.139C139.655 166.305 85.5907 169.666 79.8804 180.526Z" fill="#F7A9A0"/>
<path d="M137.267 151.286C140.15 146.632 152.112 134.064 156.142 136.597C160.173 139.131 153.994 149.753 151.35 153.985C145.888 162.688 143.189 176.634 142.004 183.409C140.82 190.184 126.397 180.361 126.397 180.361C126.397 180.361 129.785 163.359 137.267 151.286Z" fill="#F7A9A0"/>
<path d="M135.678 192.057C135.678 192.057 133.897 204.056 127.085 205.249C120.521 206.379 119.98 196.482 119.934 195.775C119.833 196.409 117.914 207.398 110.946 207.884C103.703 208.389 104.869 198.364 104.951 197.712C104.667 198.281 100.811 205.745 95.431 204.919C86.1862 203.478 95.5228 184.125 92.7319 177.084C92.7319 177.084 80.2647 180.462 79.8791 180.48C79.8791 180.48 88.3895 161.881 98.0841 158.64C99.4922 158.149 101.026 158.155 102.43 158.656C103.834 159.157 105.025 160.123 105.805 161.394C105.805 161.394 107.88 155.096 113.361 154.536C116.17 154.261 119.117 158.502 119.117 158.502C119.117 158.502 120.953 153.526 125.892 153.333C129.803 153.168 132.676 157.492 133.236 159.264C137.873 172.906 135.678 192.057 135.678 192.057Z" fill="#F7A9A0"/>
<path d="M132.623 158.052C132.623 157.942 132.751 157.887 132.788 157.997C137.057 168.527 138.508 181.444 135.763 192.461C135.68 192.819 135.046 192.828 135.065 192.415C135.707 180.471 135.322 169.794 132.623 158.052Z" fill="#263238"/>
<path d="M119.163 158.3C119.163 158.172 119.337 158.126 119.392 158.3C123.725 169.179 124.965 183.721 120.31 196.133C120.145 196.565 119.576 196.785 119.723 196.28C122.192 187.742 121.641 168.858 119.163 158.3Z" fill="#263238"/>
<path d="M104.328 198.465C108.339 186.393 108.073 174.247 106.017 161.807C106.017 161.642 106.219 161.624 106.274 161.752C108.945 167.563 109.432 175.624 109.285 181.949C109.251 187.81 107.688 193.56 104.75 198.63C104.631 198.814 104.236 198.731 104.328 198.465Z" fill="#263238"/>
<path d="M135.68 192.057C135.129 194.325 134.37 196.538 133.412 198.667C132.564 200.773 131.174 202.616 129.382 204.01C128.529 204.605 127.485 204.86 126.453 204.726C125.412 204.581 124.425 204.17 123.589 203.533C122.809 202.831 122.185 201.973 121.758 201.015C121.331 200.056 121.11 199.019 121.11 197.969L120.899 192.837L119.32 197.731C118.631 199.905 117.595 201.954 116.254 203.799C114.922 205.58 113.114 206.994 111.103 207.131C110.132 207.276 109.14 207.081 108.295 206.579C107.451 206.077 106.805 205.3 106.467 204.377C105.752 202.295 105.572 200.066 105.944 197.896L106.789 191.883L104.034 197.262C103.271 198.765 102.318 200.163 101.198 201.421C100.188 202.657 98.8326 203.565 97.305 204.028C96.61 204.21 95.8781 204.193 95.192 203.98C94.5058 203.768 93.8927 203.368 93.4217 202.826C92.5425 201.457 92.0771 199.863 92.0813 198.235C92.0286 194.719 92.2526 191.205 92.7515 187.724C92.9351 185.952 93.1279 184.18 93.238 182.39C93.4443 180.605 93.2723 178.797 92.7331 177.083C93.0728 178.821 93.0728 180.607 92.7331 182.344C92.4852 184.097 92.1639 185.842 91.8151 187.595C91.0632 191.116 90.6451 194.7 90.5665 198.3C90.4927 200.251 90.9905 202.182 91.9987 203.854C92.6478 204.7 93.5285 205.34 94.534 205.695C95.5395 206.05 96.6265 206.106 97.6631 205.855C99.5778 205.334 101.292 204.25 102.584 202.743C103.855 201.359 104.941 199.816 105.815 198.153L103.906 197.519C103.414 200.078 103.598 202.72 104.438 205.185C104.954 206.542 105.928 207.676 107.192 208.389C108.441 209.056 109.861 209.331 111.269 209.179C114.124 208.903 116.336 206.957 117.796 204.946C119.246 202.899 120.348 200.625 121.055 198.217L119.265 197.988C119.31 199.288 119.641 200.564 120.232 201.723C120.824 202.883 121.663 203.898 122.689 204.699C123.762 205.438 125.008 205.888 126.306 206.002C127.62 206.1 128.925 205.719 129.979 204.928C132.035 203.367 133.072 201.081 133.935 198.896C134.773 196.69 135.358 194.395 135.68 192.057Z" fill="#263238"/>
<path d="M127.224 225.511C127.224 225.511 166.14 193.985 146.365 184.814C140.49 182.059 113.095 177.901 112.149 183.391C110.928 190.469 122.037 194.352 129.399 195.674C129.399 195.674 114.646 204.543 117.759 216.652C119.705 224.262 127.224 225.511 127.224 225.511Z" fill="#F7A9A0"/>
<path d="M147.963 185.695C145.785 184.353 143.422 183.339 140.949 182.684C138.495 181.959 135.996 181.4 133.467 181.013C128.408 180.16 123.284 179.748 118.154 179.783C116.788 179.799 115.432 180.006 114.123 180.398C113.374 180.631 112.684 181.026 112.104 181.554C111.78 181.841 111.51 182.183 111.305 182.564C111.107 182.941 110.97 183.347 110.901 183.767C110.673 185.289 110.998 186.843 111.819 188.146C112.582 189.326 113.542 190.366 114.656 191.221C116.798 192.791 119.191 193.983 121.734 194.747C124.195 195.542 126.711 196.156 129.262 196.583L128.978 194.949C127.334 196.024 125.797 197.254 124.387 198.621C122.975 199.965 121.702 201.448 120.587 203.046C119.486 204.654 118.632 206.418 118.053 208.279C117.461 210.118 117.234 212.054 117.383 213.98C117.486 212.087 117.908 210.224 118.631 208.472C119.364 206.755 120.328 205.145 121.495 203.689C122.645 202.224 123.94 200.88 125.36 199.677C126.765 198.475 128.277 197.406 129.877 196.482L131.86 195.362L129.593 194.839C127.155 194.342 124.754 193.682 122.404 192.865C120.101 192.115 117.931 191.002 115.978 189.569C114.142 188.155 112.673 186.09 113.031 184.171C113.196 182.445 115.932 181.949 118.31 181.811C120.802 181.683 123.299 181.683 125.792 181.811C128.317 181.912 130.832 182.05 133.329 182.316C138.259 182.95 143.345 183.556 147.963 185.695Z" fill="#263238"/>
<path d="M164.909 260.544L139.488 215.89C139.488 215.89 169.067 192.02 186.988 183.078C197.031 178.038 201.08 185.768 198.234 195.518C188.291 229.624 164.909 260.544 164.909 260.544Z" fill="#FFC727"/>
<path d="M164.909 260.544L139.488 215.89C139.488 215.89 169.067 192.02 186.988 183.078C197.031 178.038 201.08 185.768 198.234 195.518C188.291 229.624 164.909 260.544 164.909 260.544Z" fill="#FFC727"/>
<path d="M199.052 188.311C199.085 188.595 199.103 188.88 199.107 189.165C198.99 189.457 198.931 189.769 198.933 190.083C198.929 190.356 198.979 190.628 199.08 190.882C199.08 191.166 199.08 191.469 199.006 191.8C198.64 191.317 198.443 190.726 198.446 190.12C198.434 189.465 198.648 188.826 199.052 188.311ZM179.654 199.043C180.212 199.042 180.759 199.206 181.224 199.515C181.689 199.825 182.052 200.265 182.266 200.781C182.48 201.297 182.536 201.865 182.427 202.413C182.318 202.961 182.048 203.464 181.653 203.858C181.257 204.252 180.753 204.52 180.205 204.628C179.657 204.735 179.089 204.677 178.574 204.461C178.059 204.245 177.619 203.881 177.311 203.415C177.003 202.949 176.841 202.402 176.845 201.843C176.852 201.101 177.15 200.392 177.676 199.868C178.201 199.344 178.912 199.048 179.654 199.043ZM179.654 204.194C180.118 204.199 180.573 204.067 180.961 203.813C181.349 203.56 181.654 203.197 181.835 202.77C182.017 202.343 182.068 201.872 181.981 201.416C181.895 200.961 181.675 200.541 181.35 200.21C181.024 199.88 180.608 199.654 180.154 199.56C179.7 199.466 179.228 199.51 178.798 199.685C178.369 199.86 178.001 200.158 177.741 200.542C177.482 200.927 177.342 201.38 177.34 201.843C177.338 202.461 177.58 203.055 178.013 203.495C178.446 203.935 179.036 204.186 179.654 204.194ZM164.772 239.787C165.328 239.787 165.871 239.951 166.333 240.26C166.795 240.569 167.155 241.007 167.368 241.521C167.58 242.034 167.636 242.599 167.527 243.144C167.419 243.689 167.152 244.189 166.759 244.582C166.366 244.975 165.865 245.243 165.32 245.351C164.775 245.459 164.21 245.404 163.697 245.191C163.184 244.979 162.745 244.619 162.436 244.157C162.128 243.695 161.963 243.151 161.963 242.596C161.963 241.851 162.259 241.136 162.786 240.609C163.313 240.083 164.027 239.787 164.772 239.787ZM164.772 244.909C165.077 244.911 165.379 244.852 165.66 244.736C165.942 244.62 166.198 244.45 166.414 244.235C166.63 244.02 166.801 243.765 166.918 243.483C167.035 243.202 167.095 242.9 167.095 242.596C167.095 241.98 166.85 241.389 166.415 240.953C165.979 240.518 165.388 240.273 164.772 240.273C164.156 240.273 163.565 240.518 163.13 240.953C162.694 241.389 162.45 241.98 162.45 242.596C162.45 242.9 162.51 243.202 162.627 243.483C162.743 243.765 162.915 244.02 163.13 244.235C163.346 244.45 163.602 244.62 163.884 244.736C164.166 244.852 164.468 244.911 164.772 244.909ZM181.701 221.517C182.257 221.517 182.8 221.682 183.262 221.991C183.724 222.299 184.084 222.738 184.297 223.251C184.509 223.765 184.565 224.33 184.456 224.875C184.348 225.42 184.08 225.92 183.688 226.313C183.295 226.706 182.794 226.973 182.249 227.082C181.704 227.19 181.139 227.135 180.626 226.922C180.113 226.709 179.674 226.349 179.365 225.887C179.057 225.425 178.892 224.882 178.892 224.327C178.892 223.581 179.188 222.867 179.715 222.34C180.242 221.813 180.956 221.517 181.701 221.517ZM181.701 226.64C182.317 226.64 182.908 226.395 183.343 225.96C183.779 225.524 184.024 224.933 184.024 224.317C184.024 223.701 183.779 223.111 183.343 222.675C182.908 222.239 182.317 221.995 181.701 221.995C181.085 221.995 180.494 222.239 180.059 222.675C179.623 223.111 179.378 223.701 179.378 224.317C179.378 224.933 179.623 225.524 180.059 225.96C180.494 226.395 181.085 226.64 181.701 226.64ZM155.784 212.869C156.532 212.869 157.249 213.166 157.777 213.695C158.306 214.223 158.603 214.94 158.603 215.688C158.603 216.435 158.306 217.152 157.777 217.681C157.249 218.209 156.532 218.506 155.784 218.506C155.037 218.506 154.32 218.209 153.792 217.681C153.263 217.152 152.966 216.435 152.966 215.688C152.966 214.94 153.263 214.223 153.792 213.695C154.32 213.166 155.037 212.869 155.784 212.869ZM155.784 218.02C156.247 218.023 156.701 217.889 157.087 217.634C157.473 217.379 157.775 217.015 157.954 216.589C158.132 216.162 158.18 215.691 158.091 215.237C158.001 214.783 157.779 214.366 157.452 214.039C157.124 213.712 156.707 213.489 156.253 213.4C155.799 213.31 155.329 213.358 154.902 213.537C154.475 213.716 154.111 214.017 153.856 214.404C153.601 214.79 153.467 215.243 153.471 215.706C153.476 216.317 153.721 216.902 154.154 217.333C154.588 217.765 155.173 218.008 155.784 218.01V218.02Z" fill="white"/>
<path opacity="0.1" d="M145.254 226.016L164.909 260.544C164.909 260.544 188.292 229.624 198.235 195.518C199.3 191.846 199.401 188.513 198.584 185.998L145.254 226.016Z" fill="black"/>
<path d="M147.403 213.448C151.883 219.993 163.524 238.097 169.547 250.858C169.547 250.932 169.308 251.106 169.262 251.033C162.652 241.182 150.901 220.618 146.99 213.705C146.917 213.576 147.321 213.328 147.403 213.448Z" fill="#263238"/>
<path d="M294.271 318.51L156.003 318.234L163.678 270.642C163.678 270.642 152.744 257.376 154.81 242.981C157.077 227.209 185.519 187.237 187.906 184.979C197.536 175.945 207.727 174.329 217.513 177.588C262.718 206.002 294.271 318.51 294.271 318.51Z" fill="#FFC727"/>
<path d="M158.924 300.057C159.14 300.32 159.412 300.532 159.72 300.678C160.028 300.824 160.364 300.901 160.705 300.902C161.024 300.922 161.344 300.876 161.645 300.768C161.946 300.659 162.221 300.49 162.454 300.271C162.687 300.053 162.873 299.788 163 299.495C163.127 299.201 163.193 298.885 163.193 298.565C163.193 298.245 163.127 297.929 163 297.635C162.873 297.342 162.687 297.078 162.454 296.859C162.221 296.64 161.946 296.471 161.645 296.363C161.344 296.254 161.024 296.209 160.705 296.229C160.269 296.227 159.842 296.352 159.475 296.587L159.576 295.99C159.93 295.829 160.316 295.748 160.705 295.751C161.163 295.75 161.613 295.861 162.019 296.073C162.424 296.286 162.772 296.594 163.031 296.97C163.291 297.347 163.455 297.781 163.509 298.236C163.563 298.69 163.506 299.151 163.342 299.578C163.179 300.005 162.913 300.386 162.569 300.688C162.225 300.99 161.813 301.203 161.368 301.31C160.923 301.417 160.459 301.414 160.016 301.301C159.572 301.188 159.163 300.969 158.823 300.663L158.924 300.057ZM186.833 285.533C187.391 285.531 187.936 285.695 188.401 286.004C188.866 286.312 189.229 286.752 189.443 287.267C189.658 287.782 189.715 288.349 189.607 288.896C189.5 289.443 189.232 289.946 188.838 290.341C188.444 290.736 187.942 291.006 187.395 291.115C186.848 291.225 186.281 291.17 185.766 290.956C185.25 290.743 184.809 290.382 184.499 289.919C184.189 289.455 184.024 288.91 184.024 288.352C184.024 287.606 184.319 286.89 184.846 286.362C185.372 285.834 186.087 285.536 186.833 285.533ZM186.833 290.684C187.294 290.684 187.745 290.547 188.128 290.291C188.512 290.034 188.811 289.67 188.987 289.244C189.164 288.818 189.21 288.349 189.12 287.897C189.03 287.444 188.808 287.029 188.482 286.703C188.156 286.377 187.74 286.155 187.288 286.065C186.835 285.975 186.367 286.021 185.94 286.197C185.514 286.374 185.15 286.673 184.894 287.056C184.638 287.44 184.501 287.891 184.501 288.352C184.5 288.659 184.559 288.963 184.676 289.247C184.793 289.531 184.964 289.789 185.181 290.007C185.397 290.224 185.655 290.397 185.938 290.514C186.222 290.632 186.526 290.693 186.833 290.693V290.684ZM164.8 239.787C165.357 239.787 165.903 239.952 166.366 240.262C166.83 240.572 167.191 241.013 167.404 241.529C167.617 242.044 167.673 242.611 167.563 243.158C167.454 243.705 167.184 244.207 166.789 244.601C166.394 244.995 165.891 245.263 165.344 245.37C164.796 245.478 164.229 245.421 163.715 245.206C163.2 244.992 162.76 244.629 162.452 244.164C162.143 243.7 161.979 243.154 161.981 242.596C161.984 241.853 162.279 241.141 162.803 240.615C163.328 240.089 164.038 239.791 164.781 239.787H164.8ZM164.8 244.937C165.263 244.939 165.716 244.803 166.103 244.547C166.489 244.291 166.79 243.926 166.969 243.498C167.148 243.071 167.195 242.6 167.106 242.145C167.017 241.69 166.794 241.272 166.467 240.944C166.14 240.615 165.723 240.392 165.269 240.301C164.814 240.209 164.343 240.255 163.915 240.432C163.487 240.609 163.121 240.909 162.863 241.294C162.605 241.679 162.468 242.132 162.468 242.596C162.465 243.213 162.707 243.805 163.141 244.244C163.575 244.683 164.164 244.932 164.781 244.937H164.8ZM266.134 310.963C266.882 310.963 267.599 311.26 268.127 311.789C268.656 312.317 268.953 313.034 268.953 313.782C268.953 314.529 268.656 315.246 268.127 315.775C267.599 316.303 266.882 316.6 266.134 316.6C265.387 316.6 264.67 316.303 264.141 315.775C263.613 315.246 263.316 314.529 263.316 313.782C263.316 313.034 263.613 312.317 264.141 311.789C264.67 311.26 265.387 310.963 266.134 310.963ZM266.134 316.114C266.597 316.117 267.05 315.983 267.437 315.728C267.823 315.474 268.125 315.11 268.304 314.683C268.482 314.256 268.53 313.785 268.441 313.331C268.351 312.877 268.129 312.46 267.802 312.133C267.474 311.806 267.057 311.583 266.603 311.494C266.149 311.405 265.679 311.452 265.252 311.631C264.825 311.81 264.461 312.112 264.206 312.498C263.951 312.884 263.817 313.337 263.821 313.8C263.823 314.413 264.068 315 264.501 315.433C264.934 315.867 265.522 316.111 266.134 316.114ZM237.482 301.709C238.042 301.697 238.593 301.851 239.065 302.153C239.537 302.455 239.908 302.89 240.131 303.404C240.354 303.918 240.419 304.486 240.318 305.037C240.217 305.588 239.953 306.096 239.562 306.497C239.17 306.898 238.668 307.172 238.12 307.286C237.572 307.401 237.002 307.349 236.483 307.137C235.964 306.926 235.52 306.565 235.208 306.1C234.895 305.635 234.728 305.088 234.728 304.528C234.728 303.791 235.016 303.084 235.53 302.557C236.045 302.031 236.746 301.726 237.482 301.709ZM237.482 306.841C237.945 306.845 238.398 306.711 238.784 306.456C239.171 306.201 239.472 305.837 239.651 305.41C239.83 304.983 239.878 304.513 239.788 304.059C239.699 303.605 239.476 303.188 239.149 302.861C238.822 302.533 238.405 302.311 237.951 302.222C237.497 302.132 237.026 302.18 236.599 302.359C236.173 302.537 235.809 302.839 235.554 303.225C235.299 303.612 235.165 304.065 235.168 304.528C235.171 305.142 235.415 305.73 235.848 306.164C236.281 306.599 236.868 306.846 237.482 306.851V306.841ZM259.157 230.533C259.288 230.519 259.421 230.519 259.552 230.533C259.653 230.716 259.754 230.9 259.846 231.083C259.62 231.03 259.389 231.008 259.157 231.019C258.728 231.016 258.305 231.132 257.938 231.354C257.57 231.576 257.271 231.896 257.074 232.278C256.877 232.66 256.79 233.088 256.823 233.517C256.855 233.945 257.006 234.356 257.258 234.704C257.51 235.052 257.853 235.323 258.25 235.488C258.647 235.652 259.082 235.703 259.506 235.635C259.93 235.567 260.327 235.383 260.653 235.103C260.979 234.823 261.221 234.458 261.351 234.049C261.461 234.251 261.553 234.434 261.645 234.627C261.417 235.071 261.074 235.446 260.652 235.714C260.231 235.981 259.746 236.132 259.247 236.149C258.748 236.167 258.253 236.051 257.813 235.814C257.374 235.577 257.006 235.227 256.746 234.801C256.487 234.374 256.346 233.886 256.338 233.387C256.33 232.887 256.456 232.395 256.701 231.96C256.947 231.525 257.304 231.164 257.735 230.913C258.167 230.662 258.658 230.531 259.157 230.533ZM251.234 252.079C251.791 252.078 252.335 252.241 252.799 252.549C253.262 252.857 253.623 253.296 253.837 253.809C254.051 254.323 254.107 254.889 253.999 255.434C253.891 255.98 253.623 256.482 253.23 256.875C252.837 257.268 252.335 257.536 251.789 257.644C251.244 257.752 250.678 257.696 250.164 257.482C249.651 257.268 249.212 256.907 248.904 256.444C248.596 255.98 248.432 255.436 248.434 254.879C248.437 254.139 248.731 253.43 249.254 252.905C249.776 252.381 250.485 252.084 251.225 252.079H251.234ZM251.234 257.202C251.694 257.204 252.144 257.069 252.527 256.815C252.91 256.561 253.21 256.199 253.387 255.775C253.564 255.35 253.611 254.883 253.523 254.432C253.434 253.981 253.214 253.566 252.889 253.24C252.565 252.915 252.151 252.692 251.7 252.602C251.249 252.512 250.782 252.557 250.357 252.733C249.932 252.908 249.569 253.206 249.313 253.588C249.057 253.97 248.921 254.42 248.921 254.879C248.926 255.491 249.169 256.076 249.6 256.51C250.031 256.944 250.614 257.193 251.225 257.202H251.234ZM228.09 193.544C228.838 193.544 229.555 193.841 230.083 194.37C230.612 194.898 230.909 195.615 230.909 196.363C230.909 197.11 230.612 197.827 230.083 198.356C229.555 198.884 228.838 199.181 228.09 199.181C227.343 199.181 226.626 198.884 226.097 198.356C225.569 197.827 225.272 197.11 225.272 196.363C225.272 195.615 225.569 194.898 226.097 194.37C226.626 193.841 227.343 193.544 228.09 193.544ZM228.09 198.695C228.55 198.691 228.999 198.551 229.38 198.293C229.761 198.035 230.057 197.67 230.231 197.244C230.405 196.819 230.449 196.351 230.357 195.9C230.266 195.449 230.043 195.035 229.717 194.711C229.392 194.386 228.977 194.165 228.526 194.075C228.074 193.986 227.607 194.032 227.182 194.207C226.756 194.383 226.393 194.681 226.136 195.062C225.88 195.444 225.742 195.893 225.74 196.353C225.739 196.661 225.799 196.966 225.916 197.251C226.033 197.535 226.205 197.794 226.423 198.012C226.641 198.229 226.899 198.402 227.184 198.519C227.468 198.636 227.773 198.696 228.081 198.695H228.09ZM225.263 242.357C225.82 242.357 226.366 242.523 226.829 242.833C227.293 243.143 227.654 243.584 227.867 244.099C228.08 244.615 228.136 245.182 228.026 245.729C227.917 246.276 227.647 246.778 227.252 247.172C226.857 247.566 226.354 247.833 225.807 247.941C225.259 248.049 224.692 247.992 224.178 247.777C223.663 247.562 223.223 247.199 222.915 246.735C222.606 246.27 222.442 245.724 222.444 245.166C222.444 244.421 222.74 243.707 223.267 243.18C223.794 242.653 224.508 242.357 225.253 242.357H225.263ZM225.263 247.507C225.723 247.507 226.174 247.371 226.557 247.115C226.94 246.859 227.239 246.496 227.416 246.07C227.593 245.645 227.64 245.176 227.55 244.724C227.461 244.272 227.24 243.856 226.915 243.53C226.59 243.203 226.175 242.981 225.723 242.89C225.271 242.799 224.803 242.844 224.377 243.019C223.95 243.194 223.586 243.491 223.328 243.873C223.071 244.256 222.933 244.706 222.931 245.166C222.925 245.476 222.98 245.783 223.094 246.071C223.208 246.358 223.378 246.62 223.594 246.842C223.81 247.063 224.068 247.239 224.353 247.36C224.638 247.48 224.944 247.543 225.253 247.544L225.263 247.507ZM201.255 187.237C201.815 187.224 202.366 187.379 202.837 187.68C203.309 187.981 203.68 188.416 203.904 188.93C204.127 189.443 204.193 190.011 204.092 190.562C203.992 191.112 203.729 191.62 203.339 192.021C202.948 192.422 202.447 192.698 201.899 192.813C201.351 192.928 200.782 192.878 200.263 192.668C199.744 192.458 199.299 192.098 198.986 191.635C198.672 191.171 198.503 190.625 198.501 190.065C198.501 189.329 198.788 188.622 199.3 188.094C199.813 187.566 200.511 187.259 201.246 187.237H201.255ZM201.255 192.378C201.718 192.382 202.172 192.248 202.558 191.993C202.944 191.738 203.246 191.374 203.425 190.947C203.603 190.52 203.651 190.05 203.562 189.596C203.472 189.142 203.25 188.725 202.923 188.398C202.595 188.07 202.178 187.848 201.724 187.759C201.27 187.669 200.8 187.717 200.373 187.896C199.946 188.074 199.582 188.376 199.327 188.762C199.073 189.149 198.938 189.602 198.942 190.065C198.944 190.676 199.188 191.262 199.619 191.695C200.05 192.128 200.635 192.373 201.246 192.378H201.255ZM179.663 199.043C180.221 199.042 180.768 199.206 181.233 199.515C181.698 199.825 182.061 200.265 182.275 200.781C182.489 201.297 182.545 201.865 182.436 202.413C182.327 202.961 182.057 203.464 181.662 203.858C181.266 204.252 180.762 204.52 180.214 204.628C179.666 204.735 179.098 204.677 178.583 204.461C178.068 204.245 177.628 203.881 177.32 203.415C177.012 202.949 176.85 202.402 176.854 201.843C176.861 201.103 177.158 200.395 177.682 199.871C178.205 199.348 178.913 199.051 179.654 199.043H179.663ZM179.663 204.194C180.127 204.199 180.582 204.067 180.97 203.813C181.358 203.56 181.663 203.197 181.844 202.77C182.026 202.343 182.077 201.872 181.99 201.416C181.904 200.961 181.684 200.541 181.359 200.211C181.033 199.88 180.617 199.654 180.163 199.56C179.709 199.466 179.237 199.51 178.807 199.685C178.378 199.86 178.01 200.158 177.75 200.543C177.491 200.927 177.351 201.38 177.349 201.843C177.347 202.46 177.587 203.052 178.019 203.492C178.45 203.932 179.038 204.184 179.654 204.194H179.663ZM189.146 308.136C189.705 308.134 190.251 308.298 190.716 308.607C191.181 308.916 191.543 309.356 191.758 309.871C191.972 310.387 192.029 310.954 191.92 311.502C191.812 312.049 191.543 312.552 191.148 312.947C190.754 313.342 190.251 313.61 189.703 313.719C189.156 313.827 188.588 313.771 188.073 313.556C187.557 313.342 187.117 312.979 186.808 312.514C186.499 312.049 186.335 311.503 186.337 310.945C186.337 310.2 186.633 309.485 187.16 308.959C187.687 308.432 188.401 308.136 189.146 308.136ZM189.146 313.286C189.608 313.29 190.06 313.156 190.446 312.903C190.832 312.649 191.133 312.287 191.313 311.861C191.492 311.436 191.542 310.967 191.455 310.514C191.367 310.061 191.148 309.644 190.823 309.315C190.499 308.987 190.084 308.762 189.632 308.67C189.18 308.577 188.71 308.621 188.283 308.796C187.856 308.97 187.49 309.268 187.232 309.65C186.973 310.033 186.835 310.483 186.833 310.945C186.829 311.252 186.886 311.557 187.001 311.842C187.115 312.127 187.285 312.386 187.5 312.605C187.715 312.824 187.971 312.999 188.253 313.119C188.536 313.239 188.839 313.302 189.146 313.304V313.286ZM214.852 289.793C215.41 289.791 215.956 289.956 216.421 290.266C216.885 290.576 217.246 291.018 217.459 291.534C217.671 292.05 217.725 292.618 217.613 293.165C217.501 293.712 217.229 294.214 216.83 294.605C216.432 294.997 215.927 295.261 215.378 295.363C214.829 295.466 214.262 295.403 213.749 295.182C213.237 294.962 212.801 294.593 212.499 294.124C212.197 293.654 212.041 293.105 212.052 292.547C212.061 291.809 212.362 291.103 212.887 290.584C213.413 290.066 214.122 289.775 214.861 289.775L214.852 289.793ZM214.852 294.925C215.468 294.925 216.059 294.68 216.494 294.245C216.93 293.809 217.175 293.218 217.175 292.602C217.175 291.986 216.93 291.396 216.494 290.96C216.059 290.524 215.468 290.28 214.852 290.28C214.236 290.28 213.645 290.524 213.209 290.96C212.774 291.396 212.529 291.986 212.529 292.602C212.529 293.218 212.774 293.809 213.209 294.245C213.645 294.68 214.236 294.925 214.852 294.925ZM184.492 255.954C185.051 255.95 185.598 256.113 186.065 256.421C186.531 256.729 186.895 257.169 187.111 257.685C187.326 258.201 187.383 258.769 187.275 259.317C187.167 259.866 186.898 260.37 186.503 260.765C186.108 261.16 185.604 261.429 185.055 261.537C184.507 261.645 183.939 261.588 183.423 261.372C182.907 261.157 182.467 260.793 182.159 260.326C181.851 259.86 181.688 259.313 181.692 258.754C181.699 258.013 181.998 257.306 182.524 256.785C183.05 256.264 183.761 255.972 184.501 255.972L184.492 255.954ZM184.492 261.085C184.954 261.089 185.406 260.955 185.792 260.701C186.178 260.447 186.48 260.085 186.659 259.659C186.839 259.233 186.887 258.764 186.799 258.31C186.712 257.857 186.491 257.439 186.166 257.111C185.84 256.783 185.425 256.559 184.972 256.468C184.519 256.377 184.049 256.422 183.622 256.598C183.195 256.774 182.83 257.072 182.573 257.456C182.316 257.84 182.178 258.292 182.178 258.754C182.176 259.061 182.234 259.365 182.35 259.65C182.465 259.934 182.636 260.193 182.852 260.411C183.067 260.629 183.324 260.803 183.607 260.922C183.89 261.041 184.194 261.103 184.501 261.104L184.492 261.085ZM181.692 221.499C182.247 221.499 182.791 221.664 183.252 221.972C183.714 222.281 184.075 222.72 184.287 223.233C184.5 223.747 184.555 224.311 184.447 224.856C184.339 225.401 184.071 225.902 183.678 226.295C183.285 226.688 182.785 226.955 182.24 227.063C181.695 227.172 181.13 227.116 180.617 226.904C180.103 226.691 179.665 226.331 179.356 225.869C179.047 225.407 178.883 224.864 178.883 224.308C178.887 223.565 179.187 222.854 179.715 222.33C180.243 221.807 180.957 221.515 181.701 221.517L181.692 221.499ZM181.692 226.622C182.308 226.622 182.899 226.377 183.334 225.941C183.77 225.506 184.014 224.915 184.014 224.299C184.014 223.683 183.77 223.092 183.334 222.657C182.899 222.221 182.308 221.976 181.692 221.976C181.076 221.976 180.485 222.221 180.049 222.657C179.614 223.092 179.369 223.683 179.369 224.299C179.369 224.915 179.614 225.506 180.049 225.941C180.485 226.377 181.076 226.622 181.692 226.622ZM162.201 267.292C162.845 267.295 163.468 267.518 163.966 267.925C164.464 268.333 164.808 268.898 164.939 269.528C165.07 270.158 164.981 270.814 164.686 271.386C164.392 271.958 163.91 272.412 163.321 272.671L163.413 272.065C163.848 271.804 164.185 271.407 164.372 270.935C164.56 270.463 164.586 269.943 164.448 269.454C164.311 268.966 164.016 268.536 163.61 268.232C163.204 267.927 162.709 267.764 162.201 267.769C162.012 267.764 161.823 267.789 161.641 267.842C161.559 267.705 161.458 267.567 161.366 267.411C161.641 267.334 161.926 267.3 162.211 267.31L162.201 267.292ZM198.924 237.198C199.481 237.196 200.027 237.36 200.492 237.668C200.957 237.977 201.319 238.416 201.534 238.931C201.749 239.446 201.806 240.013 201.698 240.56C201.59 241.108 201.323 241.611 200.929 242.006C200.535 242.401 200.033 242.67 199.486 242.78C198.939 242.889 198.372 242.834 197.856 242.621C197.341 242.408 196.9 242.047 196.59 241.583C196.28 241.119 196.114 240.574 196.114 240.016C196.122 239.276 196.419 238.568 196.942 238.044C197.466 237.521 198.174 237.223 198.914 237.216L198.924 237.198ZM198.924 242.339C199.386 242.341 199.838 242.205 200.223 241.95C200.607 241.694 200.908 241.33 201.085 240.904C201.263 240.477 201.31 240.007 201.22 239.554C201.131 239.101 200.908 238.685 200.582 238.358C200.255 238.031 199.839 237.809 199.385 237.719C198.932 237.63 198.463 237.677 198.036 237.854C197.61 238.032 197.246 238.332 196.99 238.717C196.735 239.102 196.599 239.554 196.601 240.016C196.599 240.322 196.657 240.625 196.772 240.909C196.887 241.192 197.057 241.45 197.271 241.667C197.486 241.885 197.742 242.058 198.024 242.176C198.306 242.294 198.609 242.356 198.914 242.357L198.924 242.339ZM271.092 267.31C271.648 267.31 272.191 267.475 272.654 267.784C273.116 268.093 273.476 268.532 273.688 269.046C273.9 269.56 273.956 270.125 273.846 270.671C273.737 271.216 273.469 271.716 273.075 272.109C272.681 272.501 272.18 272.768 271.634 272.876C271.089 272.983 270.524 272.926 270.01 272.712C269.497 272.498 269.059 272.136 268.752 271.673C268.444 271.21 268.281 270.666 268.283 270.11C268.287 269.367 268.585 268.656 269.111 268.132C269.637 267.608 270.349 267.312 271.092 267.31ZM271.092 272.433C271.552 272.434 272.002 272.3 272.385 272.046C272.768 271.792 273.067 271.429 273.244 271.005C273.421 270.581 273.469 270.114 273.38 269.662C273.292 269.211 273.071 268.797 272.747 268.471C272.422 268.145 272.008 267.923 271.558 267.833C271.107 267.742 270.639 267.788 270.214 267.963C269.789 268.139 269.426 268.436 269.17 268.819C268.915 269.201 268.778 269.65 268.778 270.11C268.778 270.724 269.022 271.314 269.455 271.749C269.889 272.184 270.477 272.43 271.092 272.433ZM214.815 315.645C215.538 315.645 216.234 315.923 216.757 316.422C217.281 316.922 217.591 317.604 217.624 318.326H217.138C217.103 317.733 216.843 317.175 216.412 316.765C215.981 316.356 215.41 316.126 214.815 316.123C214.223 316.124 213.655 316.353 213.226 316.761C212.797 317.169 212.541 317.726 212.511 318.317H212.015C212.051 317.59 212.367 316.905 212.898 316.406C213.429 315.908 214.133 315.635 214.861 315.645H214.815ZM236.536 271.68C237.094 271.68 237.64 271.846 238.103 272.157C238.566 272.469 238.926 272.911 239.137 273.427C239.347 273.944 239.4 274.511 239.287 275.058C239.174 275.604 238.901 276.104 238.502 276.495C238.104 276.886 237.598 277.149 237.05 277.251C236.501 277.353 235.935 277.289 235.423 277.068C234.91 276.847 234.475 276.479 234.174 276.009C233.872 275.54 233.716 274.992 233.727 274.434C233.742 273.691 234.05 272.983 234.585 272.467C235.121 271.951 235.839 271.668 236.582 271.68H236.536ZM236.536 276.812C236.998 276.814 237.45 276.678 237.834 276.423C238.219 276.168 238.519 275.805 238.697 275.379C238.875 274.953 238.923 274.484 238.834 274.031C238.745 273.578 238.523 273.161 238.198 272.834C237.872 272.507 237.456 272.284 237.004 272.194C236.551 272.103 236.082 272.148 235.655 272.325C235.229 272.501 234.864 272.8 234.607 273.183C234.351 273.567 234.214 274.018 234.214 274.48C234.214 274.789 234.275 275.096 234.395 275.381C234.514 275.666 234.689 275.925 234.91 276.142C235.13 276.359 235.391 276.53 235.679 276.645C235.966 276.76 236.273 276.817 236.582 276.812H236.536ZM235.141 220.085C235.695 220.089 236.236 220.256 236.696 220.567C237.155 220.877 237.512 221.317 237.722 221.83C237.932 222.343 237.986 222.907 237.876 223.45C237.766 223.994 237.498 224.493 237.106 224.884C236.713 225.275 236.213 225.542 235.669 225.65C235.126 225.758 234.562 225.702 234.05 225.491C233.537 225.279 233.099 224.92 232.79 224.46C232.481 224 232.315 223.458 232.313 222.904C232.313 222.529 232.388 222.158 232.533 221.812C232.678 221.467 232.891 221.153 233.158 220.891C233.426 220.629 233.743 220.422 234.091 220.284C234.44 220.145 234.812 220.078 235.187 220.085H235.141ZM235.141 225.217C235.757 225.217 236.348 224.972 236.783 224.537C237.219 224.101 237.464 223.51 237.464 222.894C237.464 222.278 237.219 221.688 236.783 221.252C236.348 220.816 235.757 220.572 235.141 220.572C234.525 220.572 233.934 220.816 233.498 221.252C233.063 221.688 232.818 222.278 232.818 222.894C232.818 223.51 233.063 224.101 233.498 224.537C233.934 224.972 234.525 225.217 235.141 225.217ZM285.083 291.611C285.261 291.612 285.44 291.627 285.615 291.657C285.68 291.849 285.744 292.024 285.799 292.208C285.485 292.13 285.158 292.118 284.84 292.174C284.521 292.229 284.217 292.35 283.948 292.529C283.679 292.709 283.45 292.942 283.275 293.214C283.101 293.486 282.985 293.792 282.935 294.112C282.885 294.431 282.903 294.758 282.986 295.07C283.069 295.383 283.216 295.675 283.418 295.927C283.62 296.18 283.872 296.388 284.159 296.538C284.446 296.688 284.76 296.776 285.083 296.798C285.469 296.798 285.85 296.7 286.188 296.514C286.527 296.328 286.813 296.059 287.02 295.733L287.213 296.284C286.953 296.596 286.627 296.847 286.259 297.018C285.891 297.189 285.489 297.277 285.083 297.275C284.7 297.297 284.316 297.241 283.956 297.109C283.596 296.977 283.266 296.774 282.987 296.51C282.708 296.247 282.486 295.929 282.334 295.577C282.182 295.225 282.104 294.845 282.104 294.461C282.104 294.078 282.182 293.698 282.334 293.346C282.486 292.993 282.708 292.676 282.987 292.412C283.266 292.149 283.596 291.945 283.956 291.814C284.316 291.682 284.7 291.626 285.083 291.648V291.611ZM254.484 287.021C255.042 287.021 255.588 287.186 256.052 287.497C256.516 287.807 256.877 288.249 257.09 288.765C257.303 289.281 257.357 289.848 257.247 290.396C257.137 290.943 256.867 291.445 256.471 291.838C256.075 292.232 255.571 292.499 255.023 292.605C254.475 292.712 253.908 292.654 253.393 292.438C252.878 292.221 252.439 291.857 252.132 291.391C251.824 290.926 251.662 290.379 251.666 289.821C251.667 289.452 251.741 289.087 251.883 288.746C252.025 288.406 252.233 288.097 252.495 287.837C252.757 287.577 253.067 287.371 253.409 287.231C253.75 287.091 254.115 287.019 254.484 287.021ZM254.484 292.152C254.945 292.152 255.396 292.016 255.78 291.759C256.163 291.503 256.462 291.139 256.639 290.713C256.815 290.287 256.861 289.818 256.771 289.366C256.681 288.913 256.459 288.498 256.133 288.172C255.807 287.846 255.392 287.624 254.939 287.534C254.487 287.444 254.018 287.49 253.592 287.666C253.166 287.843 252.802 288.142 252.545 288.525C252.289 288.909 252.152 289.359 252.152 289.821C252.164 290.431 252.415 291.012 252.851 291.44C253.287 291.867 253.874 292.107 254.484 292.107V292.152ZM209.729 264.987C210.287 264.976 210.835 265.132 211.305 265.434C211.774 265.736 212.142 266.17 212.363 266.683C212.585 267.195 212.648 267.761 212.546 268.31C212.444 268.859 212.181 269.364 211.79 269.763C211.4 270.161 210.899 270.434 210.353 270.547C209.806 270.66 209.239 270.608 208.722 270.397C208.206 270.186 207.764 269.826 207.453 269.363C207.141 268.9 206.975 268.354 206.975 267.796C206.979 267.062 207.269 266.359 207.783 265.834C208.297 265.31 208.995 265.006 209.729 264.987ZM209.729 270.119C210.189 270.119 210.638 269.983 211.02 269.728C211.402 269.472 211.699 269.11 211.875 268.685C212.051 268.261 212.097 267.794 212.007 267.343C211.918 266.893 211.696 266.479 211.372 266.154C211.047 265.829 210.633 265.608 210.182 265.518C209.732 265.429 209.265 265.475 208.84 265.651C208.416 265.826 208.053 266.124 207.798 266.506C207.543 266.888 207.406 267.337 207.406 267.796C207.411 268.41 207.658 268.997 208.093 269.43C208.527 269.863 209.115 270.108 209.729 270.11V270.119ZM217.018 177.432C217.215 177.699 217.467 177.919 217.757 178.077C218.047 178.236 218.368 178.329 218.699 178.35L219.341 178.8C219.184 178.829 219.024 178.845 218.864 178.846C218.325 178.845 217.797 178.69 217.343 178.398C216.889 178.107 216.528 177.693 216.302 177.203L217.018 177.432ZM208.334 208.692C208.891 208.696 209.435 208.865 209.896 209.177C210.358 209.49 210.716 209.933 210.926 210.449C211.136 210.965 211.188 211.532 211.076 212.078C210.964 212.624 210.692 213.125 210.295 213.516C209.898 213.908 209.395 214.173 208.847 214.278C208.3 214.383 207.733 214.324 207.22 214.107C206.706 213.891 206.268 213.527 205.962 213.061C205.655 212.596 205.493 212.05 205.497 211.492C205.498 211.122 205.573 210.755 205.716 210.414C205.859 210.072 206.069 209.762 206.333 209.502C206.596 209.242 206.909 209.036 207.252 208.897C207.596 208.758 207.963 208.688 208.334 208.692ZM208.334 213.842C208.796 213.841 209.247 213.702 209.631 213.444C210.014 213.186 210.313 212.82 210.489 212.393C210.665 211.966 210.711 211.496 210.62 211.042C210.529 210.589 210.307 210.173 209.98 209.846C209.653 209.519 209.237 209.296 208.783 209.206C208.33 209.115 207.86 209.161 207.433 209.337C207.005 209.513 206.64 209.811 206.382 210.195C206.124 210.579 205.985 211.03 205.983 211.492C205.982 211.801 206.042 212.107 206.16 212.393C206.278 212.679 206.451 212.938 206.669 213.157C206.888 213.375 207.147 213.548 207.433 213.666C207.719 213.784 208.025 213.844 208.334 213.842Z" fill="white"/>
<path d="M185.529 267.007C191.187 267.506 196.8 268.427 202.321 269.761C205.075 270.459 207.737 271.285 210.418 272.167C211.758 272.607 213.098 273.002 214.448 273.388C215.851 273.832 217.303 274.107 218.772 274.205C218.799 274.205 218.825 274.215 218.843 274.234C218.862 274.253 218.873 274.279 218.873 274.306C218.873 274.332 218.862 274.358 218.843 274.377C218.825 274.396 218.799 274.407 218.772 274.407C217.383 274.474 215.99 274.449 214.604 274.333C213.267 274.169 211.942 273.918 210.638 273.58C207.884 272.892 205.13 272.084 202.376 271.368C196.775 269.936 191.185 268.494 185.502 267.466C185.199 267.429 185.263 266.98 185.529 267.007Z" fill="#263238"/>
<path d="M171.556 272.019C176.215 271.527 180.898 271.3 185.584 271.34C187.925 271.34 190.247 271.533 192.588 271.762C193.699 271.872 194.81 272.001 195.921 272.139C197.032 272.276 198.345 272.616 199.593 272.754C199.722 272.754 199.722 272.965 199.593 272.956C198.436 272.855 197.252 272.956 196.095 272.956L192.597 272.864C190.256 272.809 187.925 272.772 185.584 272.699C180.911 272.533 176.256 272.423 171.574 272.432C171.299 272.405 171.317 272.038 171.556 272.019Z" fill="#263238"/>
<path d="M234.085 190.037C269.301 226.952 313.093 304.087 304.426 319.483C294.787 336.568 244.404 284.331 245.992 281.843C247.351 279.676 229.403 232.855 216.66 198.887C203.918 164.919 225.382 180.912 234.085 190.037Z" fill="#F7A9A0"/>
<path d="M277.234 234.297L226.668 243.395C226.668 243.395 214.045 207.59 211.548 187.678C210.143 176.533 216.689 176.074 224.933 181.995C253.787 202.734 277.234 234.297 277.234 234.297Z" fill="#FFC727"/>
<path d="M259.158 230.533C259.715 230.535 260.259 230.702 260.721 231.015C261.183 231.327 261.542 231.77 261.751 232.286C261.961 232.803 262.012 233.37 261.898 233.916C261.784 234.462 261.51 234.961 261.111 235.351C260.712 235.741 260.207 236.003 259.658 236.104C259.11 236.206 258.544 236.142 258.032 235.92C257.521 235.699 257.086 235.33 256.785 234.861C256.483 234.392 256.328 233.844 256.339 233.287C256.354 232.55 256.657 231.848 257.184 231.333C257.712 230.817 258.42 230.53 259.158 230.533ZM259.158 235.665C259.616 235.665 260.065 235.529 260.447 235.274C260.829 235.019 261.126 234.657 261.302 234.233C261.479 233.809 261.525 233.342 261.436 232.892C261.347 232.442 261.127 232.028 260.803 231.703C260.479 231.378 260.066 231.156 259.616 231.065C259.166 230.974 258.7 231.019 258.275 231.193C257.85 231.368 257.487 231.664 257.231 232.045C256.974 232.426 256.837 232.874 256.835 233.333C256.834 233.639 256.893 233.942 257.009 234.224C257.125 234.507 257.296 234.764 257.512 234.981C257.728 235.198 257.984 235.37 258.267 235.487C258.549 235.604 258.852 235.665 259.158 235.665ZM228.091 193.544C228.838 193.544 229.555 193.841 230.083 194.37C230.612 194.898 230.909 195.615 230.909 196.363C230.909 197.11 230.612 197.827 230.083 198.356C229.555 198.884 228.838 199.181 228.091 199.181C227.343 199.181 226.626 198.884 226.098 198.356C225.569 197.827 225.272 197.11 225.272 196.363C225.272 195.615 225.569 194.898 226.098 194.37C226.626 193.841 227.343 193.544 228.091 193.544ZM228.091 198.695C228.551 198.691 228.999 198.551 229.38 198.293C229.761 198.035 230.057 197.67 230.231 197.245C230.405 196.819 230.449 196.351 230.358 195.9C230.266 195.449 230.044 195.035 229.718 194.711C229.392 194.386 228.977 194.165 228.526 194.076C228.075 193.986 227.607 194.032 227.182 194.208C226.757 194.383 226.393 194.681 226.137 195.062C225.88 195.444 225.742 195.894 225.74 196.354C225.739 196.661 225.799 196.966 225.916 197.251C226.033 197.535 226.206 197.794 226.423 198.012C226.641 198.229 226.899 198.402 227.184 198.519C227.469 198.636 227.774 198.696 228.081 198.695H228.091ZM250.188 204.588C250.612 204.588 251.029 204.686 251.409 204.873L252.731 206.232C252.917 206.605 253.011 207.017 253.007 207.434C253.008 207.993 252.844 208.539 252.535 209.004C252.226 209.469 251.786 209.831 251.271 210.046C250.756 210.26 250.188 210.317 249.641 210.208C249.093 210.1 248.59 209.831 248.195 209.437C247.8 209.042 247.532 208.539 247.423 207.991C247.315 207.444 247.372 206.876 247.586 206.361C247.8 205.845 248.163 205.405 248.628 205.096C249.093 204.787 249.639 204.623 250.197 204.625L250.188 204.588ZM250.188 209.739C250.649 209.737 251.098 209.599 251.48 209.342C251.862 209.085 252.16 208.721 252.335 208.295C252.51 207.869 252.556 207.401 252.466 206.95C252.375 206.498 252.153 206.084 251.828 205.758C251.502 205.432 251.088 205.211 250.636 205.12C250.185 205.03 249.717 205.075 249.291 205.251C248.865 205.426 248.501 205.724 248.244 206.106C247.987 206.488 247.849 206.937 247.847 207.398C247.846 207.705 247.905 208.009 248.022 208.293C248.139 208.577 248.31 208.835 248.527 209.053C248.743 209.27 249.001 209.443 249.284 209.56C249.568 209.678 249.872 209.739 250.179 209.739H250.188ZM227.347 243.284L226.759 243.395C226.729 243.359 226.692 243.331 226.649 243.312C226.612 243.196 226.53 242.957 226.401 242.596C226.761 242.753 227.081 242.988 227.338 243.284H227.347ZM235.196 220.085C235.751 220.089 236.292 220.256 236.751 220.567C237.21 220.877 237.568 221.317 237.778 221.83C237.988 222.343 238.041 222.907 237.932 223.45C237.822 223.994 237.554 224.493 237.161 224.884C236.768 225.276 236.269 225.542 235.725 225.65C235.181 225.758 234.617 225.702 234.105 225.491C233.593 225.279 233.154 224.92 232.845 224.46C232.536 224 232.371 223.458 232.369 222.904C232.369 222.534 232.442 222.167 232.583 221.825C232.725 221.483 232.932 221.172 233.194 220.911C233.456 220.649 233.767 220.441 234.109 220.3C234.45 220.158 234.817 220.085 235.187 220.085H235.196ZM235.196 225.217C235.812 225.217 236.403 224.972 236.839 224.537C237.274 224.101 237.519 223.51 237.519 222.894C237.519 222.278 237.274 221.688 236.839 221.252C236.403 220.817 235.812 220.572 235.196 220.572C234.58 220.572 233.99 220.817 233.554 221.252C233.118 221.688 232.874 222.278 232.874 222.894C232.874 223.51 233.118 224.101 233.554 224.537C233.99 224.972 234.58 225.217 235.196 225.217ZM219.213 178.828C219.112 178.828 219.002 178.828 218.892 178.828C218.307 178.827 217.738 178.641 217.267 178.295C217.928 178.412 218.576 178.59 219.204 178.828H219.213Z" fill="white"/>
<path d="M227.025 235.123C234.682 233.076 255.632 228.127 269.66 226.695C269.752 226.695 269.816 227.007 269.733 227.026C258.239 229.982 234.939 234.214 227.126 235.591C226.961 235.609 226.86 235.16 227.025 235.123Z" fill="#263238"/>
<path d="M232.836 242.293C230.752 242.495 228.668 242.734 226.602 243.018L227.034 243.275C225.528 237.767 223.857 232.314 222.067 226.897C220.277 221.481 218.395 216.11 216.173 210.813C217.495 216.376 219.093 221.829 220.764 227.338C222.434 232.846 224.289 238.198 226.272 243.551L226.4 243.872L226.713 243.808C228.757 243.33 230.798 242.825 232.836 242.293Z" fill="#263238"/>
<path d="M219.525 221.71C219.076 220.585 218.496 219.516 217.799 218.524C217.115 217.519 216.35 216.57 215.513 215.688C215.632 216.291 215.833 216.874 216.11 217.423C216.377 217.971 216.684 218.499 217.028 219.002C217.714 220.03 218.556 220.943 219.525 221.71Z" fill="#263238"/>
<path d="M303.288 320.988C293.74 331.326 271.688 330.527 215.99 333.74C208.278 334.181 190.514 280.631 198.721 279.731C209.059 278.602 249.416 276.454 252.391 276.674C277.454 278.51 309.769 313.993 303.288 320.988Z" fill="#F7A9A0"/>
<path d="M209.914 278.758C209.914 278.758 186.457 279.089 174.183 283.082C157.75 288.425 145.769 299.8 141.032 304.868C131.145 315.453 114.565 347.878 123.066 354.286C130.768 360.079 146.017 326.084 146.017 326.084C146.017 326.084 124.718 358.216 135.276 363.458C145.834 368.7 161.321 328.25 161.321 328.25C161.321 328.25 140.206 361.723 151.92 365.441C160.798 368.25 176.891 332.391 176.891 332.391C176.891 332.391 158.916 361.282 167.922 364.523C177.874 368.195 194.802 335.971 194.802 335.971C219.094 340.46 232.498 332.666 241.375 325.992C243.551 324.404 209.914 278.758 209.914 278.758Z" fill="#F7A9A0"/>
<path d="M152.662 314.507C150.018 318.179 147.329 321.897 145.024 325.799C142.72 329.701 140.553 333.685 138.598 337.78C133.87 347.832 132.484 354.865 132.612 354.442C135.761 344.39 143.785 330.288 146.089 326.387C148.393 322.485 150.487 318.482 152.782 314.59C152.91 314.489 152.763 314.415 152.662 314.507Z" fill="#263238"/>
<path d="M166.939 322.558C163.772 327.406 160.458 332.097 157.502 337.082C154.546 342.067 152.214 347.015 149.625 352.165C149.423 352.56 149.698 352.533 149.919 352.165C152.673 347.116 155.684 342.673 158.53 337.66C161.376 332.648 164.038 327.562 167.059 322.65C167.065 322.642 167.069 322.633 167.072 322.624C167.074 322.614 167.075 322.604 167.074 322.594C167.072 322.585 167.069 322.575 167.064 322.567C167.059 322.558 167.053 322.55 167.045 322.544C167.037 322.538 167.028 322.534 167.019 322.531C167.009 322.529 166.999 322.528 166.989 322.529C166.979 322.531 166.97 322.534 166.961 322.539C166.953 322.544 166.945 322.55 166.939 322.558Z" fill="#263238"/>
<path d="M180.397 327.277C175.183 334.438 171.299 342.544 167.673 350.587C167.489 350.99 167.847 350.917 168.059 350.522C172.144 342.691 175.293 336.522 180.654 327.461C180.737 327.314 180.507 327.13 180.397 327.277Z" fill="#263238"/>
<path d="M274.636 285.184C270.257 282.384 257.79 275.701 245.148 276.738C245.121 276.738 245.096 276.749 245.077 276.768C245.058 276.787 245.047 276.812 245.047 276.839C245.047 276.866 245.058 276.892 245.077 276.911C245.096 276.93 245.121 276.94 245.148 276.94C255.495 277.418 270.036 282.944 274.526 285.34C274.645 285.396 274.764 285.239 274.636 285.184Z" fill="#263238"/>
<path d="M211.034 185.557C210.354 187.898 198.181 202.688 187.421 201.605C183.905 201.256 184.998 181.958 184.998 181.958L184.75 180.517L181.335 160.32L205.581 146.549L209.069 144.713C209.069 144.713 209.638 150.304 210.281 157.263C210.281 157.593 210.345 157.915 210.373 158.254C210.4 158.594 210.465 159.025 210.492 159.393C210.602 160.43 210.712 161.495 210.795 162.551C210.859 163.359 210.933 164.139 210.97 164.993C211.006 165.846 211.08 166.673 211.135 167.517C211.566 175.936 211.309 184.556 211.034 185.557Z" fill="#F7A9A0"/>
<path d="M210.279 157.235C207.968 162.737 204.487 167.67 200.078 171.692C195.669 175.713 190.438 178.728 184.748 180.526L181.333 160.329L205.579 146.558L209.067 144.722C209.067 144.722 209.637 150.276 210.279 157.235Z" fill="#263238"/>
<path d="M158.172 121.266C147.862 155.711 167.353 165.773 174.761 167.986C181.5 169.996 204.727 175.991 218.534 142.794C232.342 109.597 219.599 93.9171 204.414 88.5006C189.23 83.084 168.5 86.8205 158.172 121.266Z" fill="#F7A9A0"/>
<path d="M167.242 114.123C168.014 114.425 168.802 114.685 169.601 114.904C170.391 115.296 171.289 115.416 172.154 115.243C172.415 115.137 172.635 114.946 172.777 114.702C172.92 114.458 172.978 114.174 172.943 113.894C172.787 113.35 172.489 112.859 172.079 112.47C171.669 112.081 171.162 111.808 170.611 111.681C169.532 111.257 168.331 111.257 167.251 111.681C167.022 111.792 166.829 111.965 166.693 112.18C166.557 112.396 166.485 112.645 166.484 112.899C166.483 113.154 166.554 113.404 166.688 113.62C166.822 113.836 167.014 114.011 167.242 114.123Z" fill="#263238"/>
<path d="M188.136 129.033C187.432 128.597 186.752 128.125 186.098 127.619C185.327 127.068 184.647 126.701 184.262 125.783C184.187 125.511 184.207 125.221 184.317 124.962C184.427 124.702 184.621 124.487 184.868 124.35C185.394 124.145 185.967 124.086 186.525 124.18C187.082 124.273 187.604 124.516 188.035 124.883C189.025 125.482 189.758 126.428 190.091 127.536C190.143 127.788 190.123 128.049 190.033 128.29C189.943 128.531 189.787 128.741 189.583 128.897C189.378 129.053 189.135 129.149 188.879 129.173C188.623 129.197 188.365 129.148 188.136 129.033Z" fill="#263238"/>
<path d="M182.407 130.345C182.453 130.263 182.554 130.51 182.517 130.602C181.654 132.897 181.057 135.67 182.893 137.148C182.949 137.194 182.893 137.313 182.829 137.277C180.396 136.046 181.223 132.374 182.407 130.345Z" fill="#263238"/>
<path d="M185.299 128.619C189.128 129.602 186.878 137.185 183.335 136.276C179.791 135.367 182.095 127.802 185.299 128.619Z" fill="#263238"/>
<path d="M186.63 129.464C187.172 130.088 187.548 131.034 188.365 131.355C189.182 131.676 190.201 131.135 191.028 130.547C191.11 130.483 191.156 130.547 191.129 130.676C190.716 132.135 189.715 133.43 188.099 133.21C186.483 132.989 185.978 131.373 186.052 129.831C186.098 129.547 186.456 129.216 186.63 129.464Z" fill="#263238"/>
<path d="M169.426 125.379C169.426 125.287 169.205 125.443 169.187 125.535C168.581 127.912 167.489 130.529 165.138 130.694C165.065 130.694 165.037 130.823 165.138 130.832C167.819 131.217 169.187 127.729 169.426 125.379Z" fill="#263238"/>
<path d="M168.032 122.322C164.359 120.945 161.853 128.445 165.278 129.721C168.702 130.997 171.135 123.478 168.032 122.322Z" fill="#263238"/>
<path d="M166.305 122.294C165.579 122.496 164.753 123.028 164.028 122.836C163.303 122.643 162.853 121.605 162.587 120.66C162.587 120.559 162.476 120.605 162.44 120.66C161.926 122.083 161.907 123.735 163.193 124.47C164.478 125.204 165.699 124.204 166.516 122.891C166.663 122.689 166.599 122.211 166.305 122.294Z" fill="#263238"/>
<path d="M175.9 150.332C175.193 150.754 174.431 151.378 173.549 151.25C172.668 151.018 171.848 150.598 171.144 150.019C171.13 150.006 171.111 149.998 171.091 149.997C171.071 149.996 171.052 150.002 171.036 150.014C171.021 150.027 171.01 150.044 171.006 150.064C171.002 150.083 171.006 150.103 171.016 150.12C171.239 150.673 171.607 151.154 172.083 151.513C172.558 151.872 173.122 152.095 173.715 152.158C174.23 152.15 174.732 151.99 175.156 151.697C175.581 151.405 175.91 150.994 176.102 150.515C176.175 150.368 176.001 150.276 175.9 150.332Z" fill="#263238"/>
<path d="M168.737 138.856C168.737 138.856 167.168 142.197 166.663 143.85C166.617 144.006 166.993 144.199 167.535 144.401C167.535 144.401 167.535 144.401 167.599 144.401C168.936 145.091 170.437 145.402 171.938 145.302C173.439 145.202 174.885 144.693 176.119 143.832C176.149 143.804 176.169 143.766 176.176 143.725C176.183 143.684 176.175 143.642 176.155 143.606C176.135 143.57 176.103 143.542 176.065 143.526C176.027 143.51 175.984 143.508 175.944 143.519C173.397 144.309 170.663 144.254 168.15 143.363C168.15 142.868 171.023 137.727 170.766 137.626C169.452 137.341 168.106 137.236 166.764 137.313C169.821 130.254 173.98 123.745 176.917 116.666C176.936 116.614 176.936 116.557 176.918 116.504C176.899 116.452 176.862 116.408 176.814 116.379C176.766 116.351 176.71 116.34 176.655 116.349C176.6 116.358 176.55 116.386 176.513 116.428C171.675 122.946 167.985 130.988 164.643 138.195C164.211 139.122 167.985 138.929 168.737 138.856Z" fill="#263238"/>
<path d="M214.926 89.391C215.248 92.4481 230.148 99.104 240.2 90.7773C250.253 82.4505 245.167 67.1374 231.02 69.3499C222.014 70.7545 214.238 82.9187 214.926 89.391Z" fill="#263238"/>
<path d="M244.807 76.6941C243.06 73.0107 240.114 70.0296 236.452 68.2388C234.758 67.3692 232.864 66.9598 230.961 67.0516C229.059 67.1435 227.213 67.7333 225.61 68.7621C222.296 70.7727 219.863 74.1052 218.009 77.6581C217.1 79.4758 216.356 81.3716 215.787 83.3225C215.123 85.2737 214.831 87.3319 214.924 89.3908C214.39 87.3303 214.309 85.1787 214.685 83.0838C215.008 80.9709 215.578 78.9034 216.384 76.9236C217.937 72.8042 220.739 69.2734 224.398 66.825C226.326 65.61 228.547 64.9405 230.825 64.8879C233.087 64.9028 235.304 65.5174 237.251 66.669C239.125 67.7393 240.762 69.1803 242.061 70.9039C243.36 72.6275 244.294 74.5976 244.807 76.6941Z" fill="#263238"/>
<path d="M213.888 145.521C206.755 142.978 212.052 126.471 212.052 126.471C212.052 126.471 200.714 120.045 198.529 110.13C198.529 110.13 199.447 118.392 203.174 122.982C203.799 123.754 180.067 112.884 184.198 93.2099C184.198 93.2099 174.21 110.561 161.688 110.524C161.091 110.524 169.133 94.1555 174.109 91.4197C176.976 89.8057 180.04 88.5713 183.225 87.7475C192.509 84.7648 202.592 85.5427 211.308 89.9141C225.648 97.2586 230.101 116.538 229.009 123.441C226.879 137.01 217.276 146.723 213.888 145.521Z" fill="#263238"/>
<path d="M202.239 123.084C189.037 117.906 181.298 105.641 184.878 91.6126C184.891 91.5381 184.877 91.4615 184.838 91.3963C184.8 91.3312 184.74 91.2817 184.669 91.2564C184.597 91.2312 184.519 91.2319 184.449 91.2585C184.378 91.285 184.319 91.3356 184.282 91.4015C177.699 104.677 189.239 120.008 202.285 123.368C202.606 123.451 202.56 123.212 202.239 123.084Z" fill="#263238"/>
<path d="M214.117 144.722C208.131 138.498 209.481 130.804 211.473 123.203C211.528 122.983 211.161 122.845 211.078 123.074C208.471 130.3 206.745 139.664 213.639 145.245C213.711 145.293 213.797 145.314 213.882 145.304C213.967 145.294 214.046 145.253 214.104 145.19C214.162 145.126 214.195 145.044 214.197 144.958C214.2 144.873 214.171 144.789 214.117 144.722Z" fill="#263238"/>
<path d="M185.052 90.2998C185.055 90.2826 185.051 90.2648 185.042 90.2498C185.033 90.2347 185.019 90.2234 185.003 90.2179C184.986 90.2123 184.968 90.2129 184.952 90.2195C184.935 90.2261 184.922 90.2384 184.914 90.2539C180.645 97.378 175.871 110.212 165.369 108.789C165.341 108.784 165.312 108.784 165.285 108.79C165.257 108.795 165.231 108.806 165.207 108.822C165.184 108.838 165.164 108.858 165.148 108.882C165.132 108.905 165.122 108.932 165.116 108.959C165.111 108.987 165.111 109.016 165.116 109.043C165.122 109.071 165.133 109.097 165.149 109.121C165.165 109.144 165.185 109.164 165.208 109.18C165.232 109.196 165.258 109.206 165.286 109.212C175.247 111.479 183.362 98.5991 185.052 90.2998Z" fill="#263238"/>
<path d="M227.732 122.606L229.357 126.076L217.845 134.174L214.356 126.361L227.732 122.606ZM218.717 130.63L226.658 125.7L226.3 124.883L217.432 127.894L218.717 130.63Z" fill="#FFC727"/>
<path d="M227.364 116.51L227.566 120.339L213.869 123.506L213.566 114.95L227.364 116.51ZM215.99 120.55L225.189 119.017V118.099L215.843 117.548L215.99 120.55Z" fill="#FFC727"/>
<path d="M212.29 143.804C212.29 143.804 222.251 134.403 226.667 138.176C231.083 141.949 222.012 156.684 215.705 157.648C214.903 157.831 214.072 157.85 213.262 157.702C212.452 157.555 211.681 157.245 210.994 156.791C210.308 156.337 209.72 155.749 209.268 155.061C208.815 154.374 208.507 153.602 208.361 152.792L212.29 143.804Z" fill="#F7A9A0"/>
<path d="M223.958 142.335C223.98 142.335 224.001 142.344 224.017 142.359C224.032 142.375 224.041 142.396 224.041 142.418C224.041 142.44 224.032 142.461 224.017 142.476C224.001 142.492 223.98 142.5 223.958 142.5C219.515 143.308 216.559 146.668 214.227 150.304C215.769 149.037 217.596 148.55 219.331 150.423C219.423 150.524 219.285 150.662 219.175 150.616C218.501 150.237 217.725 150.076 216.955 150.157C216.186 150.238 215.46 150.555 214.879 151.066C213.91 151.918 213.038 152.876 212.281 153.921C212.005 154.251 211.363 153.921 211.611 153.517L211.666 153.434C212.648 148.174 218.23 141.702 223.958 142.335Z" fill="#263238"/>
<path d="M155.243 136.349C154.921 137.919 154.804 139.524 154.894 141.123C154.951 142.735 155.261 144.327 155.812 145.842C155.812 144.235 155.684 142.675 155.62 141.096C155.555 139.517 155.418 137.947 155.243 136.349Z" fill="#263238"/>
<path d="M172.814 80.2287C172.844 78.1842 172.473 76.1535 171.721 74.2522C170.776 72.2661 169.196 70.6511 167.232 69.6619C166.552 69.2488 165.717 68.7897 164.716 68.2664C163.692 67.735 162.712 67.1209 161.788 66.4303C160.849 65.717 160.033 64.8549 159.373 63.8781C158.714 62.8832 158.371 61.7117 158.391 60.5181C158.373 59.6478 158.562 58.7858 158.942 58.0026C159.284 57.2985 159.768 56.6733 160.365 56.1665C160.974 55.6558 161.68 55.2719 162.439 55.0373C163.221 54.7924 164.035 54.6686 164.854 54.6701C165.797 54.6508 166.734 54.8225 167.608 55.175C168.403 55.4999 169.148 55.9357 169.821 56.4694C170.478 56.9892 171.073 57.5839 171.592 58.2413C172.069 58.8269 172.51 59.44 172.914 60.0774L178.836 56.0012C178.263 54.6323 177.469 53.3668 176.486 52.2556C175.518 51.1768 174.395 50.2485 173.153 49.5014C171.889 48.7497 170.527 48.1781 169.105 47.803C167.64 47.4161 166.13 47.2216 164.615 47.2246C162.889 47.2284 161.173 47.482 159.52 47.9774C157.869 48.4619 156.33 49.2702 154.994 50.3552C153.612 51.4932 152.499 52.9228 151.735 54.5415C150.849 56.4455 150.419 58.5293 150.477 60.6282C150.455 61.9253 150.625 63.2185 150.982 64.4657C151.307 65.5458 151.8 66.5682 152.442 67.4953C153.081 68.405 153.837 69.2262 154.691 69.9373C155.612 70.7107 156.588 71.4164 157.611 72.0488C158.529 72.5905 159.447 73.1138 160.365 73.6095C161.243 74.089 162.076 74.6484 162.853 75.2804C163.581 75.8699 164.203 76.5812 164.689 77.3827C165.189 78.2626 165.436 79.2632 165.405 80.2746L172.814 80.2287ZM172.676 96.0651V86.6918H165.12V96.0651H172.676Z" fill="#FFC727"/>
<path d="M188.054 50.9336C188.028 52.4505 188.302 53.9575 188.862 55.3678C189.556 56.8507 190.725 58.0592 192.185 58.8013C192.69 59.1043 193.314 59.4439 194.021 59.8387C194.785 60.2361 195.514 60.7 196.197 61.225C196.907 61.7516 197.527 62.3903 198.033 63.1162C198.524 63.8549 198.777 64.7264 198.758 65.6133C198.771 66.2253 198.647 66.8326 198.394 67.3902C198.142 67.9479 197.767 68.4418 197.298 68.8356C196.845 69.2132 196.32 69.4972 195.756 69.6711C195.177 69.8534 194.573 69.9463 193.966 69.9465C193.278 69.9538 192.594 69.8259 191.955 69.5701C191.369 69.3384 190.817 69.0297 190.312 68.652C189.826 68.2696 189.385 67.8322 188.999 67.3484C188.645 66.9027 188.317 66.4367 188.017 65.9529L183.629 68.9825C184.052 69.9916 184.642 70.9226 185.373 71.7367C186.087 72.5405 186.92 73.2308 187.842 73.7839C188.779 74.3421 189.79 74.7656 190.845 75.0417C193.179 75.6578 195.639 75.6133 197.95 74.9132C199.183 74.5474 200.33 73.9352 201.32 73.1138C202.34 72.2674 203.164 71.2084 203.734 70.0107C204.383 68.5988 204.697 67.0563 204.652 65.5031C204.666 64.5381 204.539 63.5763 204.276 62.648C204.033 61.8496 203.667 61.0939 203.192 60.4079C202.721 59.7235 202.159 59.1058 201.521 58.5718C200.839 57.9987 200.115 57.4771 199.355 57.0111C198.685 56.6071 198.015 56.2124 197.344 55.8452C196.695 55.4938 196.08 55.0819 195.508 54.615C194.966 54.1732 194.504 53.6423 194.14 53.0451C193.776 52.3926 193.595 51.6533 193.617 50.906L188.054 50.9336ZM188.155 39.1825V46.1413H193.746V39.1458L188.155 39.1825Z" fill="#455A64"/>
<path d="M118.199 124.929C118.174 126.446 118.449 127.953 119.007 129.363C119.712 130.848 120.896 132.054 122.367 132.787C122.872 133.09 123.497 133.43 124.203 133.825C124.964 134.224 125.689 134.688 126.37 135.211C127.069 135.736 127.674 136.376 128.16 137.102C128.653 137.837 128.91 138.705 128.895 139.59C128.902 140.226 128.761 140.855 128.482 141.426C128.228 141.948 127.868 142.41 127.426 142.785C126.976 143.164 126.455 143.448 125.893 143.62C125.313 143.801 124.71 143.894 124.103 143.896C123.411 143.904 122.725 143.776 122.083 143.519C121.494 143.273 120.941 142.949 120.439 142.555C119.955 142.171 119.515 141.733 119.127 141.252C118.775 140.804 118.448 140.338 118.144 139.856L113.756 142.886C114.179 143.895 114.769 144.826 115.5 145.64C116.217 146.442 117.049 147.132 117.97 147.687C118.907 148.244 119.918 148.667 120.972 148.945C122.059 149.233 123.18 149.378 124.304 149.377C125.586 149.373 126.859 149.184 128.087 148.817C129.31 148.459 130.45 147.859 131.438 147.054C132.461 146.207 133.287 145.148 133.861 143.951C134.508 142.538 134.822 140.996 134.779 139.443C134.798 138.478 134.671 137.516 134.403 136.588C134.16 135.79 133.795 135.034 133.32 134.348C132.851 133.664 132.292 133.046 131.658 132.512C130.971 131.941 130.243 131.42 129.482 130.951C128.812 130.547 128.142 130.153 127.472 129.785C126.824 129.432 126.209 129.02 125.636 128.555C125.097 128.113 124.637 127.582 124.277 126.985C123.905 126.335 123.72 125.595 123.744 124.846L118.199 124.929ZM118.3 113.178V120.137H123.901V113.178H118.3Z" fill="#455A64"/>
<path d="M273.423 152.002C273.449 150.482 273.174 148.972 272.615 147.559C271.92 146.079 270.75 144.874 269.292 144.135C268.787 143.832 268.163 143.483 267.456 143.097C266.697 142.694 265.973 142.231 265.289 141.711C264.593 141.183 263.988 140.544 263.499 139.82C263.006 139.081 262.75 138.21 262.765 137.323C262.755 136.686 262.896 136.057 263.178 135.486C263.431 134.962 263.791 134.496 264.233 134.119C264.683 133.742 265.205 133.461 265.767 133.292C266.36 133.104 266.98 133.008 267.603 133.008C268.295 132.998 268.982 133.129 269.622 133.393C270.21 133.621 270.764 133.93 271.266 134.311C271.75 134.699 272.191 135.14 272.579 135.624C272.932 136.068 273.26 136.53 273.561 137.01L277.949 133.981C277.524 132.973 276.934 132.042 276.205 131.227C275.491 130.425 274.658 129.738 273.735 129.189C272.798 128.629 271.788 128.203 270.733 127.922C269.646 127.637 268.525 127.495 267.401 127.499C266.12 127.5 264.846 127.686 263.618 128.05C262.397 128.412 261.258 129.011 260.268 129.813C259.245 130.66 258.418 131.718 257.844 132.916C257.199 134.332 256.885 135.877 256.926 137.433C256.907 138.395 257.034 139.354 257.302 140.279C257.545 141.08 257.91 141.839 258.385 142.528C258.856 143.211 259.415 143.828 260.047 144.364C260.734 144.938 261.462 145.463 262.223 145.934C262.89 146.338 263.56 146.723 264.233 147.091C264.882 147.447 265.496 147.862 266.07 148.33C266.611 148.766 267.071 149.295 267.428 149.891C267.801 150.544 267.986 151.287 267.961 152.039L273.423 152.002ZM273.322 163.753V156.785H267.722V163.753H273.322Z" fill="#FFC727"/>
</svg>
