<svg width="50" height="50" viewBox="0 0 50 50" fill="none" xmlns="http://www.w3.org/2000/svg">
<path d="M48.3604 0.394532H43.7305C43.5718 0.394353 43.4147 0.426406 43.2688 0.488749C43.1228 0.551091 42.9911 0.642423 42.8815 0.757207C42.7719 0.871991 42.6868 1.00783 42.6313 1.1565C42.5758 1.30517 42.5511 1.46356 42.5586 1.62207L42.9492 9.7041C40.6781 7.02782 37.8511 4.8785 34.665 3.40568C31.4788 1.93286 28.0101 1.17192 24.5 1.17578C11.1543 1.17578 0.271491 12.0674 0.281257 25.4131C0.291022 38.7803 11.1309 49.6133 24.5 49.6133C30.4971 49.6218 36.2825 47.3968 40.7285 43.3721C40.8473 43.2658 40.9431 43.1364 41.0102 42.9918C41.0772 42.8472 41.1141 42.6904 41.1185 42.5311C41.1228 42.3718 41.0947 42.2132 41.0357 42.0651C40.9767 41.9171 40.8881 41.7826 40.7754 41.6699L37.4551 38.3496C37.2449 38.1395 36.9629 38.0171 36.6659 38.0071C36.3689 37.9972 36.0792 38.1004 35.8555 38.2959C33.2319 40.6041 29.9671 42.0579 26.4962 42.4632C23.0254 42.8686 19.5134 42.2064 16.4285 40.5649C13.3436 38.9234 10.8324 36.3806 9.22953 33.2754C7.62668 30.1703 7.0084 26.6503 7.45711 23.1848C7.90581 19.7193 9.40019 16.4729 11.741 13.8783C14.0819 11.2838 17.1579 9.46442 20.5592 8.66272C23.9604 7.86103 27.5252 8.11511 30.7783 9.3911C34.0315 10.6671 36.8184 12.9044 38.7676 15.8047L28.8525 15.3291C28.694 15.3216 28.5356 15.3463 28.387 15.4018C28.2383 15.4573 28.1025 15.5424 27.9877 15.652C27.8729 15.7616 27.7816 15.8933 27.7192 16.0393C27.6569 16.1852 27.6248 16.3423 27.625 16.501V21.1309C27.625 21.4417 27.7485 21.7397 27.9682 21.9595C28.188 22.1793 28.4861 22.3027 28.7969 22.3027H48.3604C48.6712 22.3027 48.9692 22.1793 49.189 21.9595C49.4088 21.7397 49.5322 21.4417 49.5322 21.1309V1.56641C49.5322 1.25561 49.4088 0.957535 49.189 0.737766C48.9692 0.517997 48.6712 0.394532 48.3604 0.394532Z" fill="#EAB309"/>
</svg>
