<svg width="44" height="51" viewBox="0 0 44 51" fill="none" xmlns="http://www.w3.org/2000/svg">
<path d="M26.2411 48.1058C25.7389 49.9622 23.8416 50.3945 22 50.3945C20.1585 50.3945 18.2611 49.9622 17.759 48.1058C17.0124 45.3295 15.75 38.3729 15.75 35.1357C15.75 31.7025 18.7912 30.8633 22 30.8633C25.2088 30.8633 28.25 31.7025 28.25 35.1357C28.25 38.3534 26.9931 45.3095 26.2411 48.1058ZM15.444 28.5736C13.6186 26.7857 12.5185 24.2599 12.6331 21.4839C12.8337 16.628 16.7732 12.6991 21.6296 12.5111C26.967 12.3045 31.375 16.5866 31.375 21.8789C31.375 24.4987 30.2945 26.8707 28.5561 28.5734C28.2948 28.8293 28.3216 29.2557 28.6174 29.4706C29.5268 30.1313 30.2248 30.9689 30.691 31.9475C30.861 32.3043 31.3255 32.4025 31.6138 32.1321C34.4288 29.4912 36.16 25.708 36.0582 21.5301C35.8771 14.0881 29.8478 8.0332 22.4065 7.82217C14.4677 7.59697 7.9375 13.9897 7.9375 21.8789C7.9375 25.9181 9.64961 29.5645 12.3857 32.1317C12.6741 32.4023 13.1388 32.3046 13.3089 31.9475C13.7751 30.9688 14.4732 30.1313 15.3826 29.4706C15.6784 29.2558 15.7053 28.8294 15.444 28.5736ZM22 0.394531C9.91055 0.394531 0.125 10.1782 0.125 22.2695C0.125 31.0578 5.26191 38.446 12.4042 41.9383C12.8273 42.1451 13.3092 41.7875 13.2377 41.3221C13.0051 39.8072 12.8137 38.3 12.7098 36.9921C12.6955 36.8128 12.5976 36.6517 12.4482 36.5515C7.81934 33.4454 4.77598 28.1515 4.81279 22.1621C4.87061 12.764 12.556 5.10664 21.9543 5.08213C31.4524 5.05732 39.1875 12.7771 39.1875 22.2695C39.1875 28.3176 36.0471 33.6455 31.3115 36.7097C31.214 38.0805 31.0118 39.6968 30.7623 41.322C30.6908 41.7875 31.1728 42.1451 31.5958 41.9382C38.7214 38.4538 43.875 31.0769 43.875 22.2695C43.875 10.1802 34.0913 0.394531 22 0.394531ZM22 16.0195C18.5482 16.0195 15.75 18.8178 15.75 22.2695C15.75 25.7213 18.5482 28.5195 22 28.5195C25.4518 28.5195 28.25 25.7213 28.25 22.2695C28.25 18.8178 25.4518 16.0195 22 16.0195Z" fill="#EAB309"/>
</svg>
