<svg width="51" height="51" viewBox="0 0 51 51" fill="none" xmlns="http://www.w3.org/2000/svg">
<path d="M1.71216 14.8496L24.4602 25.1689C25.1243 25.4707 25.8752 25.4707 26.5393 25.1689L49.2874 14.8496C50.9036 14.1162 50.9036 11.6738 49.2874 10.9404L26.5403 0.620114C26.214 0.470984 25.8595 0.393799 25.5007 0.393799C25.142 0.393799 24.7875 0.470984 24.4612 0.620114L1.71216 10.9394C0.0959473 11.6728 0.0959473 14.1162 1.71216 14.8496ZM49.2883 23.4707L43.6155 20.8994L27.8303 28.0547C27.092 28.3896 26.3079 28.5596 25.5002 28.5596C24.6926 28.5596 23.9094 28.3896 23.1702 28.0547L7.38599 20.8994L1.71216 23.4707C0.0959473 24.2031 0.0959473 26.6445 1.71216 27.3769L24.4602 37.6885C25.1243 37.9893 25.8752 37.9893 26.5393 37.6885L49.2883 27.3769C50.9045 26.6445 50.9045 24.2031 49.2883 23.4707ZM49.2883 35.9512L43.637 33.3896L27.8303 40.5547C27.092 40.8896 26.3079 41.0596 25.5002 41.0596C24.6926 41.0596 23.9094 40.8896 23.1702 40.5547L7.3645 33.3896L1.71216 35.9512C0.0959473 36.6836 0.0959473 39.125 1.71216 39.8574L24.4602 50.1689C25.1243 50.4697 25.8752 50.4697 26.5393 50.1689L49.2883 39.8574C50.9045 39.125 50.9045 36.6836 49.2883 35.9512Z" fill="#EAB309"/>
</svg>
